<?xml version="1.0" standalone="no"?>
<!DOCTYPE svg PUBLIC "-//W3C//DTD SVG 20010904//EN"
 "http://www.w3.org/TR/2001/REC-SVG-20010904/DTD/svg10.dtd">
<svg version="1.0" xmlns="http://www.w3.org/2000/svg"
 width="1000.000000pt" height="1000.000000pt" viewBox="0 0 1000.000000 1000.000000"
 preserveAspectRatio="xMidYMid meet">
<metadata>
Created by potrace 1.14, written by Peter Selinger 2001-2017
</metadata>
<g transform="translate(0.000000,1000.000000) scale(0.100000,-0.100000)"
fill="#000000" stroke="none">
<path d="M4647 9974 c-3 -2 -102 -13 -177 -20 -36 -3 -76 -7 -90 -10 -14 -3
-50 -7 -80 -10 -68 -6 -97 -11 -108 -17 -4 -3 -28 -8 -52 -12 -25 -3 -52 -8
-60 -10 -8 -2 -35 -7 -60 -10 -24 -4 -52 -11 -61 -16 -9 -4 -32 -9 -50 -10
-19 -1 -43 -5 -54 -10 -11 -5 -54 -17 -95 -28 -41 -10 -129 -35 -195 -55 -66
-21 -127 -38 -135 -39 -8 -1 -17 -4 -20 -7 -3 -3 -23 -11 -45 -18 -58 -20
-280 -110 -350 -142 -33 -15 -89 -42 -125 -59 -36 -17 -68 -31 -73 -31 -4 0
-26 -12 -50 -27 -23 -15 -69 -40 -102 -57 -33 -17 -62 -33 -65 -36 -3 -3 -18
-12 -35 -20 -16 -8 -32 -17 -35 -20 -3 -3 -39 -26 -80 -50 -71 -41 -289 -187
-300 -199 -3 -3 -13 -10 -22 -16 -82 -49 -373 -299 -546 -469 -90 -89 -167
-162 -173 -164 -5 -2 -9 -8 -9 -12 0 -5 -10 -20 -22 -32 -43 -44 -107 -118
-115 -132 -4 -8 -27 -36 -51 -62 -56 -65 -52 -60 -108 -140 -26 -38 -51 -70
-56 -72 -4 -2 -8 -10 -8 -17 0 -7 -7 -15 -15 -19 -8 -3 -15 -11 -15 -18 0 -8
-14 -28 -30 -46 -16 -18 -30 -37 -30 -41 0 -4 -19 -37 -42 -72 -83 -129 -186
-307 -253 -436 -37 -73 -71 -133 -76 -133 -5 0 -9 -9 -9 -20 0 -11 -9 -42 -21
-68 -22 -50 -23 -51 -65 -157 -15 -38 -31 -74 -35 -80 -3 -5 -12 -28 -18 -50
-7 -22 -18 -56 -26 -75 -7 -19 -19 -55 -26 -80 -7 -25 -21 -64 -31 -86 -10
-23 -20 -55 -22 -70 -4 -33 -15 -82 -23 -104 -3 -8 -7 -20 -8 -26 -2 -6 -11
-38 -20 -70 -10 -33 -19 -66 -21 -74 -16 -97 -27 -148 -34 -165 -5 -11 -12
-45 -15 -75 -4 -30 -8 -64 -10 -75 -9 -52 -21 -140 -30 -224 -3 -29 -8 -58
-11 -63 -10 -15 -17 -236 -17 -508 0 -399 4 -501 18 -545 7 -22 13 -69 14
-104 1 -36 5 -69 7 -73 3 -5 7 -23 9 -41 2 -18 7 -52 11 -77 3 -25 8 -58 10
-75 8 -61 25 -151 35 -181 5 -17 9 -45 9 -63 0 -18 7 -39 15 -47 8 -9 16 -32
17 -52 2 -51 2 -55 12 -71 5 -7 10 -21 10 -30 3 -25 50 -178 76 -246 7 -19 48
-139 54 -160 5 -18 18 -49 41 -105 13 -30 26 -66 30 -80 5 -14 21 -53 36 -87
16 -33 29 -66 29 -71 0 -5 10 -24 23 -43 12 -19 29 -54 36 -79 7 -25 17 -47
21 -50 4 -3 19 -27 34 -55 14 -27 30 -57 35 -65 5 -8 17 -33 27 -55 11 -22 25
-46 31 -53 7 -7 13 -20 13 -28 0 -9 11 -30 25 -48 14 -18 25 -36 25 -41 0 -4
11 -21 25 -37 14 -16 23 -33 20 -38 -2 -4 5 -16 16 -26 27 -24 89 -120 89
-138 0 -7 7 -19 15 -26 8 -7 15 -17 15 -22 0 -5 15 -24 33 -43 39 -41 52 -57
97 -119 19 -27 50 -65 67 -84 18 -18 33 -36 33 -38 0 -3 9 -14 20 -26 11 -12
20 -30 20 -40 0 -11 4 -17 8 -14 5 3 18 -3 28 -14 28 -27 106 -113 125 -135 9
-11 27 -30 40 -42 37 -35 59 -62 59 -73 0 -5 4 -10 9 -10 5 0 40 -29 77 -64
38 -35 82 -74 97 -87 35 -30 29 -48 -25 -79 -22 -12 -49 -33 -60 -45 -10 -12
-46 -40 -78 -61 -33 -21 -60 -44 -60 -51 0 -6 -10 -15 -22 -19 -27 -8 -114
-68 -148 -101 -13 -14 -50 -40 -81 -58 -32 -18 -66 -42 -77 -52 -46 -42 -87
-73 -99 -73 -7 0 -13 -4 -13 -10 0 -5 -6 -10 -13 -10 -7 0 -20 -8 -28 -18 -9
-9 -26 -24 -39 -32 -12 -8 -29 -22 -38 -30 -9 -8 -19 -15 -24 -15 -4 0 -15
-10 -23 -22 -9 -13 -22 -23 -29 -23 -7 0 -23 -11 -36 -25 -13 -14 -29 -25 -37
-25 -7 0 -30 -15 -50 -33 -60 -52 -172 -137 -181 -137 -5 0 -17 -10 -28 -21
-10 -12 -37 -30 -59 -40 -22 -10 -36 -19 -31 -19 14 0 -25 -40 -39 -40 -7 0
-20 -9 -30 -20 -10 -11 -24 -20 -31 -20 -7 0 -29 -16 -50 -35 -20 -19 -40 -35
-44 -35 -12 0 -85 -58 -154 -122 -48 -45 -58 -60 -49 -69 19 -19 9793 -20
9793 -1 0 7 4 11 9 7 5 -3 12 -1 16 5 3 5 1 10 -4 10 -6 0 -11 7 -11 15 0 8
-10 20 -22 26 -13 7 -30 19 -38 28 -23 24 -72 57 -98 65 -12 4 -22 11 -22 15
0 5 -13 14 -30 21 -16 7 -30 18 -30 26 0 7 -27 29 -59 48 -33 19 -88 57 -123
84 -35 27 -78 57 -96 66 -18 9 -35 23 -38 30 -2 6 -30 30 -61 52 -30 21 -65
49 -77 62 -11 13 -34 30 -51 38 -17 8 -42 25 -56 38 -14 13 -41 31 -60 40 -19
9 -46 27 -61 41 -15 14 -32 25 -37 25 -5 0 -19 14 -31 30 -12 17 -28 30 -36
30 -8 0 -14 4 -14 9 0 5 -13 14 -30 20 -16 5 -30 15 -30 20 0 6 -5 11 -11 11
-6 0 -22 13 -36 30 -13 16 -29 30 -34 30 -10 0 -88 57 -99 72 -3 3 -23 17 -45
30 -92 55 -115 71 -115 80 0 13 -42 47 -93 75 -22 12 -49 30 -61 41 -11 10
-29 22 -38 25 -26 9 -11 37 47 87 28 24 62 56 77 72 14 15 32 28 40 28 7 0 22
15 32 33 22 38 130 147 145 147 6 0 11 5 11 11 0 11 12 26 80 97 19 20 44 51
55 69 22 35 75 98 146 173 25 27 52 62 59 77 8 15 38 60 66 98 64 89 146 215
214 330 29 50 68 113 87 140 18 28 35 62 38 75 3 14 9 26 15 28 5 2 10 12 10
22 0 10 4 21 9 25 9 5 91 170 91 182 0 2 11 28 24 56 13 29 31 75 41 102 9 28
32 82 52 120 20 39 34 70 33 70 -2 0 4 25 14 55 9 30 24 80 33 110 8 30 20 66
26 80 6 14 12 30 12 35 1 6 10 36 19 69 10 32 19 64 21 70 1 6 5 18 8 26 7 15
10 32 28 135 6 33 18 71 26 84 8 12 12 32 9 43 -2 12 2 40 9 62 8 23 17 64 19
92 3 27 7 58 10 70 2 12 7 45 10 75 4 30 9 70 12 89 9 64 12 95 19 180 3 47 9
110 13 140 8 70 8 548 -1 660 -4 47 -9 117 -12 155 -3 39 -7 84 -10 100 -2 17
-6 55 -9 85 -4 30 -9 66 -12 78 -3 13 -7 43 -10 65 -3 23 -13 74 -21 112 -9
39 -19 88 -23 110 -5 22 -18 78 -30 125 -12 47 -25 101 -30 120 -16 68 -60
206 -106 335 -25 72 -50 141 -54 155 -9 29 -64 162 -85 205 -151 316 -233 474
-261 506 -8 8 -14 23 -14 32 0 9 -4 17 -10 17 -5 0 -12 11 -16 24 -3 14 -14
32 -25 42 -10 9 -19 22 -19 27 0 6 -7 19 -17 29 -19 21 -40 56 -49 81 -3 9
-10 17 -15 17 -5 0 -16 15 -25 33 -9 17 -29 46 -43 63 -52 62 -61 74 -61 83 0
5 -7 15 -16 22 -9 8 -42 47 -72 89 -30 41 -61 79 -69 83 -7 4 -13 12 -13 18 0
5 -14 24 -32 40 -17 17 -49 52 -71 78 -60 71 -243 255 -331 335 -44 39 -99 90
-123 114 -24 23 -48 42 -52 42 -5 0 -15 7 -22 16 -22 27 -394 305 -429 321
-12 5 -102 61 -195 121 -11 6 -31 17 -43 22 -13 6 -54 28 -90 49 -124 72 -316
166 -455 222 -54 22 -117 49 -140 60 -22 12 -52 23 -66 26 -14 2 -82 24 -151
48 -138 47 -202 69 -210 70 -3 0 -25 6 -50 12 -99 26 -136 34 -170 39 -19 3
-46 9 -60 14 -14 5 -43 12 -65 15 -22 3 -47 7 -55 10 -8 2 -33 6 -55 10 -22 3
-56 10 -75 15 -19 5 -62 11 -95 14 -33 4 -95 11 -139 17 -43 6 -97 10 -120 11
-22 0 -45 3 -51 6 -8 5 -763 10 -768 6z"/>
</g>
</svg>
