<?xml version="1.0" encoding="utf-8"?>
<!-- Svg Vector Icons : http://www.onlinewebfonts.com/icon -->
<!DOCTYPE svg PUBLIC "-//W3C//DTD SVG 1.1//EN" "http://www.w3.org/Graphics/SVG/1.1/DTD/svg11.dtd">
<svg version="1.1" xmlns="http://www.w3.org/2000/svg" xmlns:xlink="http://www.w3.org/1999/xlink" x="0px" y="0px" viewBox="0 0 256 256" enable-background="new 0 0 256 256" xml:space="preserve">
<metadata> Svg Vector Icons : http://www.onlinewebfonts.com/icon </metadata>
<g><g><path fill="#000000" d="M234,61.8h-15.9V49.9c0-13.6-11.3-28.2-36.2-28.2H74c-24.9,0-36.2,14.6-36.2,28.2v11.9H21.9c-8,0-11.9,3.9-11.9,11.9v129.9c0,14.1,6.9,16.2,11,16.2h15.3v4.3c0,0.4,0.1,4.3,3,7.2c1.3,1.3,3.7,2.8,7.6,2.8h162.4c3.9,0,6.3-1.5,7.6-2.8c2.9-2.9,3-6.8,3-7.2v-4.3H235c4.1,0,11-2.1,11-16.2V73.8C246,65.8,242.1,61.8,234,61.8z M43.6,49.9c0-11.2,9.4-22.4,30.4-22.4h107.9c21,0,30.4,11.3,30.4,22.4v14.8v2.9v127.8H43.6V67.6v-2.9V49.9z M240.2,203.7c0,7-1.8,10.5-5.2,10.5h-21v10c0,1.3-0.6,4.3-4.8,4.3H46.8c-4.2,0-4.7-3-4.8-4.3v-10H21c-3.5,0-5.2-3.5-5.2-10.5V73.8c0-5.3,1.8-6.2,6.2-6.2h16.4v133h179.2v-133h16.4c4.4,0,6.2,0.9,6.2,6.2L240.2,203.7L240.2,203.7z"/></g></g>
</svg>